<svg xmlns="http://www.w3.org/2000/svg" xmlns:xlink="http://www.w3.org/1999/xlink" width="500" zoomAndPan="magnify" viewBox="0 0 375 374.999991" height="500" preserveAspectRatio="xMidYMid meet" version="1.0"><defs><clipPath id="c84dbca502"><path d="M 187.5 0 C 83.945312 0 0 83.945312 0 187.5 C 0 291.054688 83.945312 375 187.5 375 C 291.054688 375 375 291.054688 375 187.5 C 375 83.945312 291.054688 0 187.5 0 Z M 187.5 0 " clip-rule="nonzero"/></clipPath><clipPath id="7355e38d3b"><path d="M 0 0 L 375 0 L 375 375 L 0 375 Z M 0 0 " clip-rule="nonzero"/></clipPath><clipPath id="1b6d284fd4"><path d="M 187.5 0 C 83.945312 0 0 83.945312 0 187.5 C 0 291.054688 83.945312 375 187.5 375 C 291.054688 375 375 291.054688 375 187.5 C 375 83.945312 291.054688 0 187.5 0 Z M 187.5 0 " clip-rule="nonzero"/></clipPath><clipPath id="a06879fea5"><rect x="0" width="375" y="0" height="375"/></clipPath><clipPath id="50450a209b"><path d="M 180.609375 125.050781 L 311.855469 125.050781 L 311.855469 313.714844 L 180.609375 313.714844 Z M 180.609375 125.050781 " clip-rule="nonzero"/></clipPath><clipPath id="cab98589af"><path d="M 311.855469 158.046875 L 311.855469 280.628906 C 311.855469 289.382812 308.378906 297.773438 302.191406 303.960938 C 296.003906 310.148438 287.613281 313.625 278.859375 313.625 L 213.605469 313.625 C 204.855469 313.625 196.460938 310.148438 190.273438 303.960938 C 184.085938 297.773438 180.609375 289.382812 180.609375 280.628906 L 180.609375 158.046875 C 180.609375 149.292969 184.085938 140.902344 190.273438 134.714844 C 196.460938 128.527344 204.855469 125.050781 213.605469 125.050781 L 278.859375 125.050781 C 287.613281 125.050781 296.003906 128.527344 302.191406 134.714844 C 308.378906 140.902344 311.855469 149.292969 311.855469 158.046875 Z M 311.855469 158.046875 " clip-rule="nonzero"/></clipPath><clipPath id="92d9f5db8a"><path d="M 0.609375 0.0507812 L 131.855469 0.0507812 L 131.855469 188.679688 L 0.609375 188.679688 Z M 0.609375 0.0507812 " clip-rule="nonzero"/></clipPath><clipPath id="2f5e40e799"><path d="M 131.855469 33.046875 L 131.855469 155.628906 C 131.855469 164.382812 128.378906 172.773438 122.191406 178.960938 C 116.003906 185.148438 107.613281 188.625 98.859375 188.625 L 33.605469 188.625 C 24.855469 188.625 16.460938 185.148438 10.273438 178.960938 C 4.085938 172.773438 0.609375 164.382812 0.609375 155.628906 L 0.609375 33.046875 C 0.609375 24.292969 4.085938 15.902344 10.273438 9.714844 C 16.460938 3.527344 24.855469 0.0507812 33.605469 0.0507812 L 98.859375 0.0507812 C 107.613281 0.0507812 116.003906 3.527344 122.191406 9.714844 C 128.378906 15.902344 131.855469 24.292969 131.855469 33.046875 Z M 131.855469 33.046875 " clip-rule="nonzero"/></clipPath><clipPath id="c65402b8ec"><rect x="0" width="132" y="0" height="189"/></clipPath><clipPath id="42ed703b10"><path d="M 63.125 56.257812 L 197.324219 56.257812 L 197.324219 244.972656 L 63.125 244.972656 Z M 63.125 56.257812 " clip-rule="nonzero"/></clipPath><clipPath id="d67958ca8c"><path d="M 197.324219 89.25 L 197.324219 211.835938 C 197.324219 220.585938 193.847656 228.980469 187.660156 235.167969 C 181.472656 241.355469 173.078125 244.832031 164.328125 244.832031 L 96.121094 244.832031 C 87.371094 244.832031 78.976562 241.355469 72.789062 235.167969 C 66.601562 228.980469 63.125 220.585938 63.125 211.835938 L 63.125 89.25 C 63.125 80.5 66.601562 72.109375 72.789062 65.921875 C 78.976562 59.730469 87.371094 56.257812 96.121094 56.257812 L 164.328125 56.257812 C 173.078125 56.257812 181.472656 59.730469 187.660156 65.921875 C 193.847656 72.109375 197.324219 80.5 197.324219 89.25 Z M 197.324219 89.25 " clip-rule="nonzero"/></clipPath><clipPath id="6f9b35f746"><path d="M 0.125 0.257812 L 134.324219 0.257812 L 134.324219 188.972656 L 0.125 188.972656 Z M 0.125 0.257812 " clip-rule="nonzero"/></clipPath><clipPath id="f27bcbc644"><path d="M 134.324219 33.25 L 134.324219 155.835938 C 134.324219 164.585938 130.847656 172.980469 124.660156 179.167969 C 118.472656 185.355469 110.078125 188.832031 101.328125 188.832031 L 33.121094 188.832031 C 24.371094 188.832031 15.976562 185.355469 9.789062 179.167969 C 3.601562 172.980469 0.125 164.585938 0.125 155.835938 L 0.125 33.25 C 0.125 24.5 3.601562 16.109375 9.789062 9.921875 C 15.976562 3.730469 24.371094 0.257812 33.121094 0.257812 L 101.328125 0.257812 C 110.078125 0.257812 118.472656 3.730469 124.660156 9.921875 C 130.847656 16.109375 134.324219 24.5 134.324219 33.25 Z M 134.324219 33.25 " clip-rule="nonzero"/></clipPath><clipPath id="b367e7cd36"><rect x="0" width="135" y="0" height="189"/></clipPath></defs><g clip-path="url(#c84dbca502)"><g transform="matrix(1, 0, 0, 1, 0, 0)"><g clip-path="url(#a06879fea5)"><g clip-path="url(#7355e38d3b)"><g clip-path="url(#1b6d284fd4)"><rect x="-82.5" width="540" fill="#000000" height="539.999987" y="-82.499998" fill-opacity="1"/></g></g></g></g></g><g clip-path="url(#50450a209b)"><g clip-path="url(#cab98589af)"><g transform="matrix(1, 0, 0, 1, 180, 125)"><g clip-path="url(#c65402b8ec)"><g clip-path="url(#92d9f5db8a)"><g clip-path="url(#2f5e40e799)"><path fill="#ffffff" d="M 0.609375 0.0507812 L 131.855469 0.0507812 L 131.855469 188.714844 L 0.609375 188.714844 Z M 0.609375 0.0507812 " fill-opacity="1" fill-rule="nonzero"/></g></g></g></g></g></g><g clip-path="url(#42ed703b10)"><g clip-path="url(#d67958ca8c)"><g transform="matrix(1, 0, 0, 1, 63, 56)"><g clip-path="url(#b367e7cd36)"><g clip-path="url(#6f9b35f746)"><g clip-path="url(#f27bcbc644)"><path fill="#ffffff" d="M 0.125 0.257812 L 134.324219 0.257812 L 134.324219 188.972656 L 0.125 188.972656 Z M 0.125 0.257812 " fill-opacity="1" fill-rule="nonzero"/></g></g></g></g></g></g></svg>
